<svg xmlns="http://www.w3.org/2000/svg" width="545.6596" height="137.5745" viewBox="0 0 545.6596 137.5745">
  <g id="Layer_2" data-name="Layer 2">
    <g>
      <g>
        <path d="M68.7873,132.5743A63.7871,63.7871,0,0,1,68.7873,5H476.8728a63.7871,63.7871,0,1,1,0,127.5742Z" fill="#493a30"/>
        <path d="M476.8724,10a58.7873,58.7873,0,0,1,0,117.5745H68.7872A58.7873,58.7873,0,0,1,68.7872,10H476.8724m0-10H68.7872A68.7871,68.7871,0,0,0,0,68.7871v0a68.7872,68.7872,0,0,0,68.7872,68.7872H476.8724A68.7872,68.7872,0,0,0,545.66,68.7873v0A68.7871,68.7871,0,0,0,476.8724,0Z" fill="#e1b4ab"/>
      </g>
      <circle cx="494.3511" cy="68.7872" r="11.3085" fill="#fff"/>
      <circle cx="51.3085" cy="68.7872" r="11.3085" fill="#fff"/>
    </g>
    <g>
      <path d="M95.2211,38.8266h8.856q9.84,0,14.35,2.706,6.3135,3.8548,6.314,12.3a15.9946,15.9946,0,0,1-2.2139,7.4619,11.9621,11.9621,0,0,1-6.642,5.166,14.0893,14.0893,0,0,1,6.7651,3.4033,13.177,13.177,0,0,1,3.5669,5.0425,18.2215,18.2215,0,0,1,.9018,6.0683,16.7973,16.7973,0,0,1-1.6811,7.1338,12.126,12.126,0,0,1-4.8789,5.4942q-4.6736,2.625-13.2837,2.624h-11.89a4.12,4.12,0,0,1-2.9112-.7793,4.2734,4.2734,0,0,1-.7788-2.9932V42.4345a4.2945,4.2945,0,0,1,.6968-2.87A3.9478,3.9478,0,0,1,95.2211,38.8266Zm8.7739,4.1h-8.2V92.2089h12.792q14.4309,0,14.4316-11.7265a10.9559,10.9559,0,0,0-3.977-8.4048q-3.9778-3.567-11.1929-3.5669h-5.4941q-.9032,0-1.312-.041a1.8375,1.8375,0,0,1-.9429-.4922,1.946,1.946,0,0,1-.5327-1.5581,1.3676,1.3676,0,0,1,.8608-1.4351,7.0663,7.0663,0,0,1,2.419-.3276h5.166q6.8057,0,9.7168-3.3623a11.2337,11.2337,0,0,0,2.9111-7.544,9.9428,9.9428,0,0,0-2.7881-7.2158Q114.49,42.9274,103.995,42.9267Z" fill="#e1b4ab"/>
      <path d="M218.2206,36.3666h.7378a1.3777,1.3777,0,0,1,1.5581,1.5581V90.4863Q222.32,87.7,231.2587,72.5283q8.9362-15.1692,9.9219-16.81a1.3711,1.3711,0,0,1,1.23-.4922h1.8042c.71,0,1.066.2744,1.066.82q0,.8211-6.0679,10.8242l-4.6743,7.7076,10.7422,19.6806a2.2584,2.2584,0,0,1,.41,1.1475q0,.8217-1.0664.82h-1.8037a1.7721,1.7721,0,0,1-1.312-.82l-9.2661-16.8916q-8.5292,14.2676-9.4712,15.58a6.23,6.23,0,0,1-1.64,1.7216,3.0857,3.0857,0,0,1-1.5991.41q-2.871,0-2.87-3.1982V37.9247A1.3773,1.3773,0,0,1,218.2206,36.3666Z" fill="#e1b4ab"/>
      <path d="M264.0165,40.4257a20.339,20.339,0,0,1,5.166-1.7222,27.38,27.38,0,0,1,4.4278-.3691,26.6452,26.6452,0,0,1,4.3867.3691,20.3881,20.3881,0,0,1,4.8789,1.5581,19.3233,19.3233,0,0,1,4.7969,3.0337,16.4546,16.4546,0,0,1,3.7724,5.084,20.9532,20.9532,0,0,1,2.05,7.503q0,1.8046-1.64,1.8042h-.7383a1.4791,1.4791,0,0,1-1.64-1.4761,18.3732,18.3732,0,0,0-1.7226-6.0679,11.9585,11.9585,0,0,0-3.0332-4.0181,17.8957,17.8957,0,0,0-10.0449-3.69,27.5615,27.5615,0,0,0-4.6739.3281,17.1791,17.1791,0,0,0-4.1411,1.3941,13.5282,13.5282,0,0,0-4.0181,2.8286,14,14,0,0,0-2.9111,4.9614,21.1035,21.1035,0,0,0-1.1889,7.38V75.3984a19.319,19.319,0,0,0,1.312,7.38,14.2242,14.2242,0,0,0,3.1572,4.9609,14.4942,14.4942,0,0,0,4.3047,2.8291,18.4773,18.4773,0,0,0,7.38,1.7226,24.1087,24.1087,0,0,0,5.8632-.6152,15.9475,15.9475,0,0,0,4.7969-2.1728q5.083-3.1993,5.084-11.8907a2.5144,2.5144,0,0,1,.4512-1.8037,1.7006,1.7006,0,0,1,1.1885-.41h.6562a1.45,1.45,0,0,1,1.64,1.64,22.3436,22.3436,0,0,1-1.5987,8.7744,15.9768,15.9768,0,0,1-3.7314,5.6992,16.5456,16.5456,0,0,1-5.002,3.0752,21.8767,21.8767,0,0,1-7.749,1.7217,34.7126,34.7126,0,0,1-5.7393-.41,21.5561,21.5561,0,0,1-5.4121-1.8037,19.5742,19.5742,0,0,1-5.248-3.5264,16.6747,16.6747,0,0,1-3.813-6.0264,23.8,23.8,0,0,1-1.5581-8.8974V58.9985a25.1918,25.1918,0,0,1,1.5171-9.1021,16.4628,16.4628,0,0,1,3.69-6.0268A18.4981,18.4981,0,0,1,264.0165,40.4257Z" fill="#e1b4ab"/>
      <path d="M303.09,36.2846h.6553a1.65,1.65,0,0,1,1.1485.4507,1.5376,1.5376,0,0,1,.4921,1.1894V94.5868a1.5347,1.5347,0,0,1-.4921,1.1885,1.6463,1.6463,0,0,1-1.1485.4512H303.09a1.6444,1.6444,0,0,1-1.1484-.4512,1.5348,1.5348,0,0,1-.4922-1.1885V37.9247a1.5376,1.5376,0,0,1,.4922-1.1894A1.6483,1.6483,0,0,1,303.09,36.2846Zm13.6114,18.7778a12.41,12.41,0,0,1,9.2256,3.6079q3.5669,3.6095,3.5664,9.9224V94.5868q0,1.6407-1.5577,1.64h-.7382a1.4488,1.4488,0,0,1-1.64-1.64V68.6747q0-4.6743-2.542-7.2163a9.2581,9.2581,0,0,0-6.8476-2.542,10.1352,10.1352,0,0,0-7.4209,3.1162,2.0724,2.0724,0,0,1-1.3936.7378q-1.4766,0-1.5586-1.64a2.7717,2.7717,0,0,1,.3281-1.23,8.6219,8.6219,0,0,1,4.1006-3.4028A14.9717,14.9717,0,0,1,316.7011,55.0624Z" fill="#e1b4ab"/>
      <path d="M339.9882,36.8993q.8188-.6957,3.7724-.6967,2.9517,0,3.8536.7788.9023.7807.9023,3.2392v1.066q0,2.7882-.9023,3.5258t-3.8536.7383q-2.9516,0-3.7724-.7383t-.8194-3.5258v-1.066Q339.1688,37.5971,339.9882,36.8993Zm3.1982,18.2452h1.3946a1.6352,1.6352,0,0,1,1.3115.41,1.9511,1.9511,0,0,1,.3281,1.23V94.5868a1.5348,1.5348,0,0,1-.4922,1.1885,1.6453,1.6453,0,0,1-1.1474.4512h-1.3946a1.64,1.64,0,0,1-1.1474-.4512,1.5345,1.5345,0,0,1-.4922-1.1885V56.7846q0-1.065.4511-1.353A2.1874,2.1874,0,0,1,343.1864,55.1445Zm2.0908-15.7852a2.6027,2.6027,0,0,0-1.4755-.2866,2.7148,2.7148,0,0,0-1.4356.2456q-.3281.2461-.3271,1.1484v.82c0,.602.1084.9838.3271,1.1479a4.55,4.55,0,0,0,2.9522,0c.2177-.1641.3281-.5459.3281-1.1479v-.82A1.3477,1.3477,0,0,0,345.2772,39.3593Z" fill="#e1b4ab"/>
      <path d="M359.4218,55.3085h.6562a1.6524,1.6524,0,0,1,1.1485.4512,1.5387,1.5387,0,0,1,.4912,1.189V94.5868a1.5375,1.5375,0,0,1-.4912,1.1885,1.6479,1.6479,0,0,1-1.1485.4512h-.6562q-1.5586,0-1.5576-1.64V56.9487Q357.8642,55.3088,359.4218,55.3085Zm3.0342,5.084a11.9114,11.9114,0,0,1,10.25-5.33q6.4774,0,9.7578,3.5259t3.28,10.0044V94.5868q0,1.6407-1.5576,1.64H383.53a1.4484,1.4484,0,0,1-1.64-1.64V68.6747q0-4.8376-2.2969-7.2983-2.2953-2.46-6.6826-2.46a9.9766,9.9766,0,0,0-7.667,3.69,2.6587,2.6587,0,0,1-1.5576.7383q-1.4765,0-1.5586-1.64A2.9129,2.9129,0,0,1,362.456,60.3925Zm34.6865-5.33q6.0674,0,9.3476,3.5259,3.2784,3.5267,3.28,10.0044V94.5868q0,1.6407-1.5586,1.64h-.6562a1.4488,1.4488,0,0,1-1.64-1.64V68.6747q0-4.8376-2.2959-7.2983t-6.7646-2.46a10.2985,10.2985,0,0,0-7.8311,3.69,2.6583,2.6583,0,0,1-1.5586.7383q-1.4751,0-1.5576-1.64a2.9011,2.9011,0,0,1,.3281-1.312,12.7386,12.7386,0,0,1,4.5918-3.854A13.6,13.6,0,0,1,397.1425,55.0624Z" fill="#e1b4ab"/>
      <path d="M424.9813,58.6293a14.4645,14.4645,0,0,1,10.168-3.5669,14.7268,14.7268,0,0,1,10.209,3.5259q3.936,3.5267,3.9355,10.0044V82.86q0,6.3149-3.9355,9.9219a14.5139,14.5139,0,0,1-10.209,3.6084,15.1646,15.1646,0,0,1-10.209-3.3623v22.1406a1.3781,1.3781,0,0,1-1.5586,1.5576h-.7373a1.3777,1.3777,0,0,1-1.5586-1.5576V68.5927Q421.0858,62.1964,424.9813,58.6293Zm17.5479,2.8291a10.9791,10.9791,0,0,0-7.3389-2.46,10.8621,10.8621,0,0,0-7.3388,2.5009,8.9418,8.9418,0,0,0-2.9112,7.1753V88.6005q5,3.8555,9.84,3.8535a11.36,11.36,0,0,0,7.749-2.542,9.0693,9.0693,0,0,0,2.9111-7.2158V68.6747Q445.44,63.92,442.5292,61.4584Z" fill="#e1b4ab"/>
    </g>
    <g>
      <path d="M178.7542,62.6514V50.9125s3.3081-6.7105,12.5219-6.7105S201.47,50.9125,201.47,50.9125v24.949a13.1435,13.1435,0,0,1-11.2233,5.9531c-.7062-8.5717-8.4019-15.807-11.4925-18.8063" fill="#f0efef"/>
      <path d="M160.5779,62.6514V50.9125s-3.3082-6.7105-12.522-6.7105-10.1938,6.7105-10.1938,6.7105v24.949a13.1433,13.1433,0,0,0,11.2233,5.9531c.7062-8.5717,8.4018-15.807,11.4925-18.8063" fill="#f0efef"/>
      <path d="M190.2962,56.5075a6.23,6.23,0,1,0,6.23,6.23A6.2246,6.2246,0,0,0,190.2962,56.5075Zm.98,7.7a2.925,2.925,0,1,1,2.93-2.92A2.9255,2.9255,0,0,1,191.2761,64.2075Z" fill="#493a30"/>
      <path d="M149.8261,56.5075a6.23,6.23,0,1,0,6.23,6.23A6.2245,6.2245,0,0,0,149.8261,56.5075Zm.98,7.7a2.925,2.925,0,1,1,2.93-2.92A2.9257,2.9257,0,0,1,150.8062,64.2075Z" fill="#493a30"/>
    </g>
    <path d="M155.4913,80.9951l-6.1643-.9279s.8664-7.0508,2.59-8.6465,8.0622-10.9,18.1277-9.8224,15.5589,6.4394,18.7262,12.3756c1.476,5.5851,1.726,8.8133,1.569,9.5928C188.71,83.5539,155.4913,80.9951,155.4913,80.9951Z" fill="#e1b4ab"/>
    <g>
      <path d="M159.41,44.6083q-3.84-3.555-10.11-3.55a14.7171,14.7171,0,0,0-10.19,3.5q-3.9149,3.51-3.91,9.95v14.18q0,6.36,3.95,9.91a14.6844,14.6844,0,0,0,10.19,3.54,16.7244,16.7244,0,0,0,5.89-.98l-5.95-.41a18.0675,18.0675,0,0,1,.32-2.45c-.1.01-.2.01-.3.01a10.9967,10.9967,0,0,1-7.34-2.48,8.8617,8.8617,0,0,1-2.93-7.14v-14.18a8.8412,8.8412,0,0,1,2.93-7.13,10.9526,10.9526,0,0,1,7.34-2.49,10.625,10.625,0,0,1,7.25,2.49,8.9571,8.9571,0,0,1,2.86,7.13v9.89a19.8008,19.8008,0,0,1,3.83-1.74v-8.15Q163.24,48.1484,159.41,44.6083Z" fill="#e1b4ab"/>
      <path d="M200.49,44.6083q-3.84-3.555-10.11-3.55a14.717,14.717,0,0,0-10.19,3.5q-3.915,3.51-3.91,9.95v8.15a19.25,19.25,0,0,1,3.83,1.75v-9.9a8.8414,8.8414,0,0,1,2.93-7.13,10.9715,10.9715,0,0,1,7.34-2.49,10.669,10.669,0,0,1,7.26,2.49,8.9517,8.9517,0,0,1,2.85,7.13v14.18a8.9727,8.9727,0,0,1-2.85,7.14,10.7114,10.7114,0,0,1-7.26,2.48,3.388,3.388,0,0,1-.45-.02,19.5581,19.5581,0,0,1,.37,3.85h.12a14.2588,14.2588,0,0,0,10.07-3.54q3.8248-3.555,3.83-9.91v-14.18Q204.32,48.1484,200.49,44.6083Z" fill="#e1b4ab"/>
      <path d="M149.7534,87.044l39.1156,2.0291a.7088.7088,0,0,1,.6249.96l-.0086.0216a21.6736,21.6736,0,0,1-8.3333,10.2465,20.6259,20.6259,0,0,1-25.0683-1.8452A19.563,19.563,0,0,1,149.7534,87.044Zm.1532.1286a21.9324,21.9324,0,0,0,7.1581,10.1144,20.5278,20.5278,0,0,0,11.3548,4.3116,20.3222,20.3222,0,0,0,11.7628-2.8394,19.6779,19.6779,0,0,0,7.9723-9.2375l.6161.9817Z" fill="#e1b4ab"/>
      <path d="M190.4,82.1382l-.06,1.4285a.096.096,0,0,1-.1.0919l-.0067,0-5.12-.3506-5.1257-.2689-10.2558-.47c-6.8368-.3222-13.6654-.76-20.4984-1.1389l-.0323-.0018a.6428.6428,0,0,1-.6062-.6773l.0039-.0432a29.2129,29.2129,0,0,1,.6256-4.0306,20.415,20.415,0,0,1,1.37-3.8483,21.5029,21.5029,0,0,1,11.78-10.9178,20.3159,20.3159,0,0,1,22.6182,5.5035A21.9689,21.9689,0,0,1,190.4,82.1382Zm-.2,0a19.0218,19.0218,0,0,0-1.679-7.5851,19.7882,19.7882,0,0,0-4.4666-6.23,21.0745,21.0745,0,0,0-13.6308-5.682,20.027,20.027,0,0,0-13.8354,4.9067,19.685,19.685,0,0,0-4.6035,5.9544,18.9163,18.9163,0,0,0-1.353,3.5436,28.0294,28.0294,0,0,0-.67,3.7439l-.6344-.7221c6.82.5644,13.6448,1.0583,20.4613,1.6732l10.2241.9335,5.1143.4331,5.12.3514-.1065.0913Z" fill="#e1b4ab"/>
      <path d="M177.2553,60.064a1.5,1.5,0,0,1-1.3286-.8013c-.064-.1152-1.79-3.1338-6.5386-3.1338-4.5947,0-5.7852,2.8486-5.834,2.97a1.5072,1.5072,0,0,1-1.9331.8545,1.49,1.49,0,0,1-.876-1.9062c.0733-.2012,1.8809-4.9185,8.6431-4.9185,6.6216,0,9.0908,4.542,9.1929,4.7354a1.5009,1.5009,0,0,1-1.3257,2.2Z" fill="#e1b4ab"/>
      <path d="M173.145,71.882s2.099-4.1981,5.4725-4.0481,2.8861,2.5113,2.3988,2.8486a9.7363,9.7363,0,0,1-3.4484.3749,12.3592,12.3592,0,0,0-3.3734.8246C173.6323,72.1069,173.4074,72.2193,173.145,71.882Z" fill="#493a30"/>
      <path d="M165.8071,71.882s-2.099-4.1981-5.4724-4.0481-2.8862,2.5113-2.3989,2.8486a9.7363,9.7363,0,0,0,3.4484.3749,12.3583,12.3583,0,0,1,3.3734.8246C165.32,72.1069,165.5447,72.2193,165.8071,71.882Z" fill="#493a30"/>
      <path d="M134.1108,49.6457a7.8451,7.8451,0,0,1,.3469-3.0415,10.5193,10.5193,0,0,1,1.2905-2.7763,16.4291,16.4291,0,0,1,4.259-4.369,26.667,26.667,0,0,1,2.5788-1.647c.9-.4636,1.8191-.9378,2.73-1.35,1.8208-.8318,3.6589-1.6481,5.539-2.4045a27.1416,27.1416,0,0,1,5.9592-1.6475,11.4479,11.4479,0,0,1,6.36.8546,14.9845,14.9845,0,0,1,5.0354,3.908,28.9835,28.9835,0,0,1,1.96,2.4251c.6058.8356,1.146,1.7045,1.7238,2.5566l-2.1084.0695a27.1453,27.1453,0,0,1,3.3344-5.2554,18.675,18.675,0,0,1,2.2271-2.31,14.8677,14.8677,0,0,1,2.748-1.8095,13.7228,13.7228,0,0,1,6.439-1.415,19.3107,19.3107,0,0,1,6.2394,1.3709,41.901,41.901,0,0,1,10.4447,6.3045,19.0511,19.0511,0,0,1,4.2707,4.47,7.0991,7.0991,0,0,1,1.045,3.0093,13.6145,13.6145,0,0,1-.13,3.0358.1509.1509,0,0,1-.3,0,19.0323,19.0323,0,0,0-.42-2.8786,5.9762,5.9762,0,0,0-1.3067-2.3776,20.2067,20.2067,0,0,0-4.3933-3.5571c-1.633-1.0139-3.3153-2.0491-5.025-2.9167a32.6843,32.6843,0,0,0-5.2037-2.2764,18.7775,18.7775,0,0,0-5.3193-1.0642,11.0752,11.0752,0,0,0-5.0519.977,12.4525,12.4525,0,0,0-2.2663,1.3281,15.665,15.665,0,0,0-1.9794,1.858,19.1624,19.1624,0,0,0-1.7231,2.1863c-.5383.7675-.9824,1.6148-1.4826,2.42l-1.0749,1.73-1.0337-1.66c-.513-.8241-1-1.675-1.5373-2.48a26.8318,26.8318,0,0,0-1.7239-2.306,12.97,12.97,0,0,0-4.226-3.5728,9.5828,9.5828,0,0,0-5.3325-.903,25.6076,25.6076,0,0,0-5.6327,1.34c-1.8665.6478-3.7261,1.3606-5.5845,2.1-.9314.3662-1.8128.7687-2.7126,1.1746a25.7285,25.7285,0,0,0-2.5526,1.4554,15.6864,15.6864,0,0,0-4.2729,3.9607,9.9957,9.9957,0,0,0-1.3618,2.5808,7.5274,7.5274,0,0,0-.4787,2.8605l.001.017a.15.15,0,0,1-.298.0248Z" fill="#e1b4ab"/>
    </g>
    <path d="M149.7534,87.044l39.0173,2.398s-5.5545,13.2765-18.917,13.2765S150.6326,90.646,149.7534,87.044Z" fill="#e1b4ab"/>
  </g>
</svg>
